# xmcd CD database file
#
# Track frame offsets:
#	150
#	16385
#	30232
#	43720
#	58287
#	71875
#	89235
#	106685
#	119225
#	131707
#
# Disc length: 1965 seconds
#
# Revision: 1
# Processed by: cddbd v1.4PL0 Copyright (c) Steve Scherf et al.
# Submitted via: CDex 1.40Release
#
DISCID=9407ab0a
DTITLE=Dave Miller - Mudslide
DYEAR=1996
DGENRE=Blues
TTITLE0=4 in the Morning
TTITLE1=You're Gonna Miss Me
TTITLE2=Mudslide
TTITLE3=No Shoes
TTITLE4=Sweet Home Chicago
TTITLE5=Gold Dust
TTITLE6=The Midnight Special
TTITLE7=I'm in Love
TTITLE8=Bright Lights, Big City
TTITLE9=Drunk
EXTD=YEAR: 1996 ID3G: 0
EXTT0=
EXTT1=
EXTT2=
EXTT3=
EXTT4=
EXTT5=
EXTT6=
EXTT7=
EXTT8=
EXTT9=
PLAYORDER=
